<?xml version="1.0" encoding="UTF-8"?><svg id="Layer_1" xmlns="http://www.w3.org/2000/svg" viewBox="0 0 462.04 203.43"><defs><style>.cls-1{fill:#669ddc;}.cls-2{fill:#a6db56;}</style></defs><path class="cls-2" d="m146.21,9.75c6.03,0,10.93,4.91,10.93,10.93s-4.91,10.93-10.93,10.93-10.93-4.91-10.93-10.93,4.91-10.93,10.93-10.93h0Zm0-9.75c-11.42,0-20.69,9.26-20.69,20.69s9.26,20.69,20.69,20.69,20.69-9.26,20.69-20.69S157.63,0,146.21,0h0Z"/><path class="cls-2" d="m166.9,132.9c3.62,0,6.56,2.94,6.56,6.56s-2.94,6.56-6.56,6.56-6.56-2.94-6.56-6.56,2.94-6.56,6.56-6.56h0Zm0-9.75c-9.01,0-16.31,7.3-16.31,16.31s7.3,16.31,16.31,16.31,16.31-7.3,16.31-16.31-7.3-16.31-16.31-16.31h0Z"/><path class="cls-2" d="m17.01,84.34c4,0,7.26,3.26,7.26,7.26s-3.26,7.26-7.26,7.26-7.26-3.26-7.26-7.26,3.26-7.26,7.26-7.26h0Zm0-9.75c-9.4,0-17.01,7.62-17.01,17.01s7.62,17.01,17.01,17.01,17.01-7.62,17.01-17.01-7.62-17.01-17.01-17.01h0Z"/><path class="cls-2" d="m109.6,92.31c9.23,0,16.73,7.51,16.73,16.73s-7.51,16.73-16.73,16.73-16.73-7.51-16.73-16.73,7.51-16.73,16.73-16.73h0Zm0-9.75c-14.63,0-26.48,11.86-26.48,26.48s11.86,26.48,26.48,26.48,26.48-11.86,26.48-26.48-11.86-26.48-26.48-26.48h0Z"/><path class="cls-2" d="m91,156.31v9.75c4.57,0,8.84,2.25,11.42,6.02,2.08,3.04,2.85,6.71,2.17,10.34-.68,3.62-2.73,6.76-5.78,8.85-2.31,1.58-4.99,2.41-7.77,2.41-4.57,0-8.84-2.25-11.42-6.02-2.08-3.04-2.85-6.71-2.17-10.34.68-3.62,2.73-6.76,5.78-8.85,2.31-1.58,4.99-2.41,7.77-2.41v-9.75h0Zm0,0c-4.58,0-9.21,1.33-13.27,4.11-10.74,7.34-13.49,22-6.15,32.74,4.56,6.68,11.95,10.27,19.47,10.27,4.58,0,9.21-1.33,13.27-4.11,10.74-7.34,13.49-22,6.15-32.74-4.56-6.68-11.95-10.27-19.47-10.27h0Z"/><path class="cls-2" d="m60.88,133.33c-5.38,0-11.25-1.26-17.56-3.79-2.31-.92-3.56-3.44-2.88-5.84.19-.66,4.68-16.25,17.67-20.84,8.26-2.93,17.63-.74,27.83,6.5,1.74,1.24,2.48,3.46,1.81,5.49-.14.44-3.63,10.79-14.38,15.82-3.8,1.78-7.98,2.67-12.49,2.67h0Zm-9.34-11.24c6.98,2.06,12.92,1.97,17.7-.27,3.76-1.76,6.17-4.58,7.58-6.78-5.97-3.5-11.15-4.52-15.43-3.02-4.93,1.73-8.1,6.5-9.85,10.06Z"/><path class="cls-2" d="m83.71,112.63h-.17c-12.51-.43-21.28-4.37-26.07-11.71-7.54-11.53-1.67-26.65-1.41-27.29.92-2.31,3.44-3.56,5.84-2.9,12.04,3.35,20.31,9.18,24.58,17.34,5.5,10.52,2,20.86,1.85,21.29-.68,1.96-2.54,3.27-4.6,3.27h0Zm-19.8-30.99c-.76,3.89-1.14,9.61,1.74,13.97,2.49,3.79,7.22,6.12,14.09,6.95.21-2.64,0-6.4-1.97-10.09-2.46-4.62-7.11-8.25-13.86-10.83h0Z"/><path class="cls-2" d="m153.99,131.59c-6.92,0-14.2-3.23-21.72-9.66-1.62-1.39-2.16-3.67-1.31-5.63.18-.42,4.58-10.42,15.74-14.45,8.65-3.13,18.69-1.85,29.83,3.82,2.22,1.13,3.23,3.75,2.35,6.08-.24.64-6.13,15.76-19.47,19.17-1.78.46-3.58.68-5.41.68h0Zm-12.12-14.51c5.63,4.02,10.69,5.5,15.09,4.39,5.06-1.28,8.65-5.74,10.72-9.13-6.71-2.66-12.59-3.12-17.53-1.37-3.95,1.39-6.64,4.02-8.27,6.11h0Z"/><path class="cls-2" d="m149.61,162.97c-.57,0-1.16-.1-1.72-.32-11.69-4.42-19.4-10.97-22.92-19.48-4.53-10.97-.11-20.95.08-21.37.88-1.95,2.93-3.09,5.05-2.82,12.42,1.56,20.8,6.27,24.91,14.01,6.47,12.16-.74,26.69-1.05,27.3-.85,1.68-2.56,2.67-4.35,2.67h0Zm-16.63-33.63c-.45,2.61-.58,6.37,1.05,10.23,2.04,4.82,6.34,8.86,12.82,12.04,1.11-3.81,2-9.47-.47-14.07-2.14-4-6.64-6.74-13.4-8.19Z"/><path class="cls-2" d="m121.78,178.15c-.21,0-.42-.01-.63-.04-.68-.09-16.75-2.31-23.15-14.51-4.08-7.76-3.25-17.34,2.45-28.48.97-1.9,3.07-2.95,5.17-2.58.46.08,11.19,2.05,17.71,11.97,5.05,7.69,6.12,17.76,3.19,29.9-.53,2.21-2.52,3.73-4.74,3.73h0Zm-14.4-34.81c-2.61,6.4-2.87,11.67-.78,15.69,2.42,4.63,7.59,7.09,11.36,8.31,1.03-7.14.12-12.97-2.72-17.37-2.27-3.52-5.45-5.53-7.86-6.63h0Z"/><path class="cls-2" d="m76.4,165.96c-4.58,0-7.96-.78-8.26-.86-2.42-.58-4.02-2.89-3.7-5.36,1.59-12.4,6.18-21.42,13.64-26.8,9.62-6.95,20.36-4.96,20.81-4.87,2.1.41,3.68,2.13,3.91,4.26,1.36,12.44-1.29,21.69-7.86,27.48-5.67,4.99-12.99,6.15-18.55,6.15h0Zm-1.45-9.78c3.96.2,9.67-.25,13.58-3.72,3.39-3.01,5.02-8.02,4.87-14.93-2.65.17-6.33.91-9.71,3.39-4.22,3.1-7.15,8.22-8.74,15.26h0Z"/><path class="cls-2" d="m32.76,126.02c-5.38,0-11.25-1.26-17.56-3.79-2.31-.92-3.56-3.44-2.88-5.84.19-.66,4.69-16.25,17.67-20.84,8.26-2.93,17.63-.74,27.83,6.5,1.74,1.24,2.48,3.46,1.81,5.49-.14.44-3.63,10.79-14.38,15.82-3.8,1.78-7.98,2.67-12.49,2.67h0Zm-9.33-11.23c6.92,2.04,12.82,1.97,17.58-.21,3.81-1.74,6.25-4.6,7.69-6.83-5.98-3.51-11.17-4.52-15.45-3-4.89,1.73-8.05,6.49-9.81,10.05h0Z"/><path class="cls-2" d="m55.59,105.32h-.17c-12.51-.43-21.28-4.37-26.07-11.71-7.54-11.53-1.67-26.65-1.41-27.29.92-2.31,3.44-3.56,5.84-2.9,12.04,3.35,20.31,9.18,24.58,17.34,5.5,10.52,2,20.86,1.85,21.29-.68,1.96-2.54,3.27-4.6,3.27h0Zm-19.8-30.99c-.76,3.89-1.14,9.61,1.74,13.97,2.49,3.79,7.22,6.12,14.09,6.95.21-2.64,0-6.4-1.97-10.09-2.46-4.62-7.11-8.25-13.86-10.83h0Z"/><path class="cls-2" d="m116.02,91.69c-.71,0-1.42-.15-2.09-.47-.42-.2-10.24-4.96-13.87-16.26-2.82-8.76-1.17-18.75,4.9-29.67,1.21-2.18,3.87-3.09,6.16-2.12.63.27,15.52,6.7,18.45,20.16,1.86,8.57-1.49,17.58-9.96,26.79-.95,1.03-2.26,1.58-3.59,1.58h0Zm-4.7-37.3c-2.9,6.61-3.57,12.47-2.01,17.47,1.25,4,3.78,6.78,5.81,8.49,4.22-5.48,5.88-10.48,4.93-14.91-1.09-5.11-5.42-8.85-8.73-11.04h0Z"/><path class="cls-2" d="m131.23,95c-6.73,0-11.63-2.39-11.92-2.53-1.91-.95-2.98-3.04-2.64-5.15,2.01-12.35,7.02-20.56,14.91-24.39,12.39-6.02,26.65,1.71,27.25,2.04,2.18,1.2,3.1,3.86,2.14,6.16-4.84,11.52-11.67,18.99-20.3,22.19-3.34,1.24-6.55,1.68-9.43,1.68h0Zm-9.75-6.9h0,0Zm5.65-3.29c2.59.54,6.35.81,10.26-.68,4.89-1.86,9.08-6.01,12.49-12.38-3.77-1.25-9.39-2.34-14.08-.04-4.07,2-6.98,6.39-8.67,13.1h0Z"/><path class="cls-2" d="m126.82,64.72c-.71,0-1.42-.15-2.09-.47-.42-.2-10.24-4.96-13.87-16.26-2.82-8.76-1.17-18.75,4.9-29.67,1.21-2.18,3.87-3.1,6.16-2.12.63.27,15.52,6.7,18.45,20.16,1.86,8.57-1.49,17.58-9.96,26.79-.95,1.03-2.26,1.58-3.59,1.58h0Zm-4.7-37.3c-2.9,6.61-3.57,12.47-2.01,17.47,1.25,4,3.78,6.78,5.81,8.49,4.22-5.48,5.88-10.48,4.93-14.91-1.09-5.11-5.42-8.85-8.73-11.04Z"/><path class="cls-2" d="m142.03,68.03c-6.73,0-11.63-2.39-11.92-2.53-1.91-.95-2.98-3.04-2.64-5.15,2.01-12.35,7.02-20.56,14.91-24.39,12.39-6.02,26.65,1.71,27.25,2.04,2.18,1.2,3.1,3.86,2.14,6.16-4.84,11.52-11.67,18.99-20.29,22.19-3.34,1.24-6.55,1.68-9.43,1.68h0Zm-9.75-6.9h0,0Zm5.65-3.29c2.59.54,6.35.81,10.26-.68,4.89-1.86,9.08-6.01,12.49-12.38-3.77-1.25-9.39-2.34-14.08-.04-4.07,2-6.98,6.39-8.67,13.1h0Z"/><path class="cls-1" d="m197.71,125.59l2.93-6.51c3.15,2.29,7.84,3.89,12.32,3.89,5.12,0,7.2-1.71,7.2-4,0-6.99-21.71-2.19-21.71-16.05,0-6.35,5.12-11.63,15.73-11.63,4.69,0,9.49,1.12,12.96,3.31l-2.67,6.56c-3.47-1.97-7.04-2.93-10.35-2.93-5.12,0-7.09,1.92-7.09,4.27,0,6.88,21.71,2.13,21.71,15.84,0,6.24-5.17,11.57-15.84,11.57-5.92,0-11.89-1.76-15.2-4.32Z"/><path class="cls-1" d="m231.94,114.93c0-8.64,6.67-14.77,15.79-14.77s15.73,6.13,15.73,14.77-6.61,14.77-15.73,14.77-15.79-6.13-15.79-14.77Zm23.09,0c0-4.96-3.15-7.95-7.31-7.95s-7.36,2.99-7.36,7.95,3.2,7.95,7.36,7.95,7.31-2.99,7.31-7.95Z"/><path class="cls-1" d="m267.99,91.94c0-2.61,2.08-4.64,5.17-4.64s5.17,1.92,5.17,4.48c0,2.77-2.08,4.8-5.17,4.8s-5.17-2.03-5.17-4.64Zm1.01,8.64h8.32v28.69h-8.32v-28.69Z"/><path class="cls-1" d="m285.05,89.7h8.32v39.57h-8.32v-39.57Z"/><path class="cls-1" d="m298.76,125.59l2.93-6.51c3.15,2.29,7.84,3.89,12.32,3.89,5.12,0,7.2-1.71,7.2-4,0-6.99-21.7-2.19-21.7-16.05,0-6.35,5.12-11.63,15.73-11.63,4.69,0,9.49,1.12,12.96,3.31l-2.67,6.56c-3.47-1.97-7.04-2.93-10.35-2.93-5.12,0-7.09,1.92-7.09,4.27,0,6.88,21.7,2.13,21.7,15.84,0,6.24-5.17,11.57-15.84,11.57-5.92,0-11.89-1.76-15.2-4.32Z"/><path class="cls-1" d="m363.07,117.28h-21.7c.8,3.57,3.84,5.76,8.21,5.76,3.04,0,5.23-.91,7.2-2.77l4.43,4.8c-2.67,3.04-6.67,4.64-11.84,4.64-9.92,0-16.37-6.24-16.37-14.77s6.56-14.77,15.31-14.77,14.93,5.65,14.93,14.88c0,.64-.11,1.55-.16,2.24Zm-21.81-4.85h14.13c-.59-3.63-3.31-5.97-7.04-5.97s-6.51,2.29-7.09,5.97Z"/><path class="cls-1" d="m398.1,112.85v16.43h-8.32v-15.15c0-4.64-2.13-6.77-5.81-6.77-4,0-6.88,2.45-6.88,7.73v14.19h-8.32v-28.69h7.95v3.36c2.24-2.45,5.6-3.79,9.49-3.79,6.77,0,11.89,3.95,11.89,12.69Z"/><path class="cls-1" d="m402.85,126.61l2.77-5.97c2.56,1.65,6.45,2.77,9.97,2.77,3.84,0,5.28-1.01,5.28-2.61,0-4.69-17.33.11-17.33-11.36,0-5.44,4.91-9.28,13.28-9.28,3.95,0,8.32.91,11.04,2.51l-2.77,5.92c-2.83-1.6-5.65-2.13-8.27-2.13-3.73,0-5.33,1.17-5.33,2.67,0,4.91,17.33.16,17.33,11.47,0,5.33-4.96,9.12-13.55,9.12-4.85,0-9.76-1.33-12.43-3.09Z"/><path class="cls-1" d="m461.88,117.28h-21.7c.8,3.57,3.84,5.76,8.21,5.76,3.04,0,5.23-.91,7.2-2.77l4.43,4.8c-2.67,3.04-6.67,4.64-11.84,4.64-9.92,0-16.37-6.24-16.37-14.77s6.56-14.77,15.31-14.77,14.93,5.65,14.93,14.88c0,.64-.11,1.55-.16,2.24Zm-21.81-4.85h14.13c-.59-3.63-3.31-5.97-7.04-5.97s-6.51,2.29-7.09,5.97Z"/></svg>