<?xml version="1.0" encoding="UTF-8"?><svg id="Layer_1" xmlns="http://www.w3.org/2000/svg" viewBox="0 0 264.33 42.61"><path d="m0,38.29l2.93-6.51c3.15,2.29,7.84,3.89,12.32,3.89,5.12,0,7.2-1.71,7.2-4C22.45,24.69.75,29.49.75,15.63c0-6.35,5.12-11.63,15.73-11.63,4.69,0,9.49,1.12,12.96,3.31l-2.67,6.56c-3.47-1.97-7.04-2.93-10.35-2.93-5.12,0-7.09,1.92-7.09,4.27,0,6.88,21.71,2.13,21.71,15.84,0,6.24-5.17,11.57-15.84,11.57-5.92,0-11.89-1.76-15.2-4.32Z"/><path d="m34.23,27.63c0-8.64,6.67-14.77,15.79-14.77s15.73,6.13,15.73,14.77-6.61,14.77-15.73,14.77-15.79-6.13-15.79-14.77Zm23.09,0c0-4.96-3.15-7.95-7.31-7.95s-7.36,2.99-7.36,7.95,3.2,7.95,7.36,7.95,7.31-2.99,7.31-7.95Z"/><path d="m70.28,4.64c0-2.61,2.08-4.64,5.17-4.64s5.17,1.92,5.17,4.48c0,2.77-2.08,4.8-5.17,4.8s-5.17-2.03-5.17-4.64Zm1.01,8.64h8.32v28.69h-8.32V13.28Z"/><path d="m87.35,2.4h8.32v39.57h-8.32V2.4Z"/><path d="m101.05,38.29l2.93-6.51c3.15,2.29,7.84,3.89,12.32,3.89,5.12,0,7.2-1.71,7.2-4,0-6.99-21.7-2.19-21.7-16.05,0-6.35,5.12-11.63,15.73-11.63,4.69,0,9.49,1.12,12.96,3.31l-2.67,6.56c-3.47-1.97-7.04-2.93-10.35-2.93-5.12,0-7.09,1.92-7.09,4.27,0,6.88,21.7,2.13,21.7,15.84,0,6.24-5.17,11.57-15.84,11.57-5.92,0-11.89-1.76-15.2-4.32Z"/><path d="m165.36,29.97h-21.7c.8,3.57,3.84,5.76,8.21,5.76,3.04,0,5.23-.91,7.2-2.77l4.43,4.8c-2.67,3.04-6.67,4.64-11.84,4.64-9.92,0-16.37-6.24-16.37-14.77s6.56-14.77,15.31-14.77,14.93,5.65,14.93,14.88c0,.64-.11,1.55-.16,2.24Zm-21.81-4.85h14.13c-.59-3.63-3.31-5.97-7.04-5.97s-6.51,2.29-7.09,5.97Z"/><path d="m200.4,25.55v16.43h-8.32v-15.15c0-4.64-2.13-6.77-5.81-6.77-4,0-6.88,2.45-6.88,7.73v14.19h-8.32V13.28h7.95v3.36c2.24-2.45,5.6-3.79,9.49-3.79,6.77,0,11.89,3.95,11.89,12.69Z"/><path d="m205.14,39.3l2.77-5.97c2.56,1.65,6.45,2.77,9.97,2.77,3.84,0,5.28-1.01,5.28-2.61,0-4.69-17.33.11-17.33-11.36,0-5.44,4.91-9.28,13.28-9.28,3.95,0,8.32.91,11.04,2.51l-2.77,5.92c-2.83-1.6-5.65-2.13-8.27-2.13-3.73,0-5.33,1.17-5.33,2.67,0,4.91,17.33.16,17.33,11.47,0,5.33-4.96,9.12-13.55,9.12-4.85,0-9.76-1.33-12.43-3.09Z"/><path d="m264.17,29.97h-21.7c.8,3.57,3.84,5.76,8.21,5.76,3.04,0,5.23-.91,7.2-2.77l4.43,4.8c-2.67,3.04-6.67,4.64-11.84,4.64-9.92,0-16.37-6.24-16.37-14.77s6.56-14.77,15.31-14.77,14.93,5.65,14.93,14.88c0,.64-.11,1.55-.16,2.24Zm-21.81-4.85h14.13c-.59-3.63-3.31-5.97-7.04-5.97s-6.51,2.29-7.09,5.97Z"/></svg>