<?xml version="1.0" encoding="UTF-8"?><svg id="Layer_1" xmlns="http://www.w3.org/2000/svg" viewBox="0 0 511.3 567.75"><defs><style>.cls-1{fill:#000000;}</style></defs><path class="cls-1" d="m408.05,27.22c16.82,0,30.51,13.69,30.51,30.51s-13.69,30.51-30.51,30.51-30.51-13.69-30.51-30.51,13.69-30.51,30.51-30.51h0Zm0-27.22c-31.88,0-57.73,25.85-57.73,57.73s25.85,57.73,57.73,57.73,57.73-25.85,57.73-57.73S439.93,0,408.05,0h0Z"/><path class="cls-1" d="m465.78,370.89c10.1,0,18.31,8.21,18.31,18.31s-8.21,18.31-18.31,18.31-18.31-8.21-18.31-18.31,8.21-18.31,18.31-18.31h0Zm0-27.22c-25.14,0-45.53,20.38-45.53,45.53s20.38,45.53,45.53,45.53,45.53-20.38,45.53-45.53-20.38-45.53-45.53-45.53h0Z"/><path class="cls-1" d="m47.48,235.37c11.17,0,20.26,9.09,20.26,20.26s-9.09,20.26-20.26,20.26-20.26-9.09-20.26-20.26,9.09-20.26,20.26-20.26h0Zm0-27.22c-26.22,0-47.48,21.26-47.48,47.48s21.26,47.48,47.48,47.48,47.48-21.26,47.48-47.48-21.26-47.48-47.48-47.48h0Z"/><path class="cls-1" d="m305.88,257.63c25.75,0,46.69,20.95,46.69,46.69s-20.95,46.69-46.69,46.69-46.69-20.95-46.69-46.69,20.95-46.69,46.69-46.69h0Zm0-27.22c-40.82,0-73.91,33.09-73.91,73.91s33.09,73.91,73.91,73.91,73.91-33.09,73.91-73.91-33.09-73.91-73.91-73.91h0Z"/><path class="cls-1" d="m253.98,436.25v27.22c12.76,0,24.67,6.28,31.86,16.79,5.81,8.49,7.96,18.74,6.06,28.86-1.9,10.11-7.63,18.88-16.12,24.69-6.44,4.4-13.94,6.73-21.68,6.73-12.76,0-24.68-6.28-31.86-16.79-5.81-8.49-7.96-18.74-6.06-28.86,1.9-10.11,7.63-18.88,16.12-24.69,6.44-4.4,13.94-6.73,21.68-6.73v-27.22h0Zm0,0c-12.78,0-25.7,3.72-37.04,11.48-29.97,20.49-37.66,61.4-17.17,91.37,12.73,18.63,33.35,28.65,54.33,28.65,12.78,0,25.7-3.72,37.04-11.48,29.97-20.49,37.66-61.4,17.17-91.37-12.73-18.63-33.35-28.65-54.33-28.65h0Z"/><path class="cls-1" d="m169.92,372.1c-15.02,0-31.4-3.52-49.01-10.57-6.45-2.58-9.93-9.61-8.05-16.31.52-1.85,13.07-45.34,49.31-58.17,23.06-8.17,49.2-2.06,77.68,18.14,4.86,3.45,6.91,9.66,5.06,15.32-.4,1.22-10.12,30.11-40.13,44.14-10.61,4.96-22.26,7.44-34.86,7.44Zm-26.06-31.36c19.49,5.74,36.06,5.5,49.4-.74,10.49-4.91,17.21-12.77,21.15-18.91-16.66-9.77-31.11-12.61-43.05-8.42-13.75,4.82-22.6,18.13-27.5,28.07Z"/><path class="cls-1" d="m233.61,314.34c-.16,0-.31,0-.47,0-34.9-1.21-59.39-12.2-72.77-32.68-21.03-32.18-4.65-74.38-3.94-76.16,2.57-6.46,9.59-9.94,16.29-8.08,33.61,9.34,56.69,25.62,68.59,48.38,15.35,29.36,5.57,58.22,5.15,59.43-1.91,5.48-7.08,9.12-12.84,9.12Zm-55.25-86.48c-2.13,10.86-3.17,26.82,4.85,38.99,6.96,10.57,20.15,17.08,39.31,19.41.59-7.38,0-17.86-5.49-28.17-6.87-12.89-19.85-23.03-38.67-30.22Z"/><path class="cls-1" d="m429.77,367.26c-19.3,0-39.63-9.02-60.62-26.96-4.53-3.87-6.02-10.24-3.66-15.72.51-1.18,12.79-29.07,43.94-40.34,24.15-8.74,52.16-5.15,83.25,10.67,6.2,3.15,9.02,10.47,6.55,16.97-.68,1.79-17.11,43.97-54.35,53.49-4.96,1.27-10,1.9-15.11,1.9Zm-33.82-40.49c15.7,11.22,29.83,15.34,42.1,12.25,14.13-3.56,24.14-16.02,29.91-25.47-18.73-7.41-35.15-8.7-48.92-3.83-11.02,3.89-18.54,11.22-23.08,17.06Z"/><path class="cls-1" d="m417.53,454.82c-1.6,0-3.23-.28-4.81-.88-32.63-12.33-54.15-30.62-63.96-54.36-12.65-30.62-.3-58.48.23-59.65,2.46-5.43,8.18-8.61,14.08-7.88,34.65,4.35,58.05,17.5,69.53,39.1,18.05,33.94-2.07,74.5-2.94,76.2-2.38,4.7-7.15,7.46-12.14,7.46Zm-46.4-93.85c-1.25,7.29-1.61,17.78,2.93,28.55,5.68,13.46,17.69,24.72,35.79,33.59,3.1-10.63,5.57-26.42-1.32-39.27-5.98-11.15-18.53-18.82-37.4-22.87Z"/><path class="cls-1" d="m339.86,497.19c-.59,0-1.18-.04-1.77-.12-1.9-.25-46.74-6.46-64.62-40.49-11.38-21.66-9.08-48.4,6.85-79.48,2.72-5.3,8.57-8.22,14.44-7.2,1.27.22,31.24,5.71,49.42,33.41,14.09,21.47,17.09,49.56,8.9,83.46-1.49,6.17-7.02,10.41-13.22,10.41Zm-40.18-97.15c-7.28,17.87-8.02,32.57-2.17,43.79,6.74,12.92,21.17,19.78,31.71,23.2,2.87-19.94.33-36.21-7.6-48.48-6.34-9.82-15.21-15.44-21.94-18.51Z"/><path class="cls-1" d="m213.23,463.16c-12.77,0-22.22-2.19-23.06-2.39-6.76-1.62-11.21-8.07-10.33-14.97,4.44-34.6,17.25-59.77,38.08-74.8,26.86-19.4,56.82-13.84,58.09-13.59,5.85,1.14,10.28,5.95,10.92,11.88,3.79,34.72-3.59,60.52-21.94,76.7-15.82,13.94-36.24,17.17-51.76,17.17Zm-4.06-27.29c11.06.56,27-.7,37.9-10.37,9.47-8.4,14.02-22.39,13.59-41.68-7.39.47-17.67,2.55-27.1,9.47-11.78,8.64-19.96,22.94-24.39,42.59Z"/><path class="cls-1" d="m91.44,351.7c-15.02,0-31.4-3.52-49.01-10.57-6.45-2.58-9.93-9.61-8.05-16.31.52-1.85,13.08-45.34,49.31-58.17,23.06-8.17,49.2-2.07,77.68,18.14,4.86,3.45,6.91,9.66,5.06,15.32-.4,1.22-10.12,30.11-40.13,44.14-10.61,4.96-22.26,7.44-34.86,7.44Zm-26.04-31.35c19.32,5.68,35.78,5.49,49.05-.59,10.63-4.87,17.45-12.85,21.45-19.07-16.69-9.79-31.17-12.61-43.13-8.37-13.64,4.83-22.48,18.12-27.38,28.04Z"/><path class="cls-1" d="m155.13,293.94c-.16,0-.31,0-.47,0-34.9-1.21-59.39-12.2-72.77-32.68-21.03-32.18-4.65-74.38-3.94-76.16,2.57-6.46,9.6-9.94,16.29-8.08,33.61,9.34,56.69,25.62,68.59,48.38,15.35,29.36,5.57,58.22,5.15,59.43-1.91,5.48-7.08,9.12-12.84,9.12Zm-55.25-86.48c-2.13,10.86-3.17,26.82,4.85,38.99,6.96,10.57,20.15,17.08,39.31,19.41.59-7.38,0-17.86-5.49-28.17-6.87-12.89-19.85-23.03-38.67-30.22Z"/><path class="cls-1" d="m323.8,255.9c-1.97,0-3.95-.43-5.82-1.31-1.16-.55-28.59-13.84-38.72-45.38-7.86-24.45-3.26-52.32,13.68-82.81,3.37-6.08,10.79-8.63,17.19-5.93,1.77.75,43.32,18.69,51.49,56.26,5.19,23.91-4.16,49.06-27.79,74.77-2.64,2.87-6.3,4.4-10.02,4.4Zm-13.13-104.11c-8.08,18.45-9.97,34.81-5.61,48.75,3.49,11.16,10.54,18.93,16.21,23.69,11.78-15.28,16.41-29.25,13.77-41.62-3.05-14.25-15.13-24.71-24.37-30.82Z"/><path class="cls-1" d="m366.25,265.13c-18.79,0-32.47-6.67-33.28-7.07-5.33-2.66-8.32-8.48-7.36-14.36,5.6-34.47,19.6-57.37,41.6-68.07,34.57-16.8,74.37,4.77,76.05,5.7,6.08,3.36,8.66,10.77,5.96,17.18-13.51,32.16-32.56,53-56.65,61.94-9.31,3.46-18.29,4.68-26.33,4.68Zm-27.21-19.25h.02-.02Zm15.76-9.17c7.24,1.52,17.71,2.26,28.64-1.9,13.66-5.19,25.35-16.78,34.86-34.54-10.51-3.48-26.2-6.52-39.29-.11-11.36,5.57-19.48,17.84-24.21,36.55Z"/><path class="cls-1" d="m353.94,180.62c-1.97,0-3.95-.43-5.82-1.31-1.16-.55-28.59-13.84-38.72-45.38-7.86-24.45-3.26-52.32,13.68-82.81,3.37-6.08,10.79-8.64,17.19-5.93,1.77.75,43.32,18.69,51.49,56.26,5.19,23.91-4.16,49.06-27.79,74.77-2.64,2.87-6.3,4.4-10.02,4.4Zm-13.13-104.11c-8.08,18.45-9.97,34.81-5.61,48.75,3.49,11.16,10.54,18.93,16.21,23.69,11.78-15.28,16.41-29.25,13.77-41.62-3.05-14.25-15.13-24.71-24.37-30.82Z"/><path class="cls-1" d="m396.38,189.85c-18.79,0-32.47-6.67-33.28-7.07-5.33-2.66-8.32-8.48-7.36-14.36,5.6-34.47,19.6-57.37,41.6-68.07,34.58-16.81,74.37,4.77,76.05,5.7,6.08,3.36,8.66,10.77,5.96,17.18-13.51,32.16-32.56,53-56.64,61.94-9.31,3.46-18.29,4.68-26.33,4.68Zm-27.21-19.25h.02-.02Zm15.76-9.17c7.24,1.52,17.71,2.25,28.64-1.9,13.66-5.19,25.35-16.78,34.86-34.54-10.51-3.48-26.2-6.52-39.29-.11-11.36,5.57-19.48,17.84-24.21,36.55Z"/></svg>